<svg width="21" height="25" viewBox="0 0 21 25" fill="none" xmlns="http://www.w3.org/2000/svg">
<g filter="url(#filter0_d_4_138)">
<path d="M15.1875 10.4169H5.8125" stroke="#DC1474" stroke-miterlimit="10" shape-rendering="crispEdges"/>
</g>
<g filter="url(#filter1_d_4_138)">
<path d="M5.8125 18.2294H15.1875" stroke="#DC1474" stroke-miterlimit="10" shape-rendering="crispEdges"/>
</g>
<g filter="url(#filter2_d_4_138)">
<path d="M15.1874 18.2293C15.4637 18.2293 15.7286 18.3391 15.924 18.5344C16.1193 18.7298 16.2291 18.9947 16.2291 19.271V22.9168C16.2291 23.3312 16.0645 23.7287 15.7714 24.0217C15.4784 24.3147 15.081 24.4793 14.6666 24.4793H6.33325C5.91885 24.4793 5.52142 24.3147 5.2284 24.0217C4.93537 23.7287 4.77075 23.3312 4.77075 22.9168V19.271C4.77075 18.9947 4.8805 18.7298 5.07585 18.5344C5.2712 18.3391 5.53615 18.2293 5.81242 18.2293V10.4168C5.53615 10.4168 5.2712 10.3071 5.07585 10.1117C4.8805 9.91639 4.77075 9.65144 4.77075 9.37517V7.29184C4.77075 6.46304 5.09999 5.66818 5.68604 5.08213C6.27209 4.49608 7.06695 4.16684 7.89575 4.16684H13.1041C13.9329 4.16684 14.7277 4.49608 15.3138 5.08213C15.8998 5.66818 16.2291 6.46304 16.2291 7.29184V9.37517C16.2291 9.65144 16.1193 9.91639 15.924 10.1117C15.7286 10.3071 15.4637 10.4168 15.1874 10.4168V18.2293Z" stroke="#DC1474" stroke-miterlimit="10" shape-rendering="crispEdges"/>
</g>
<g filter="url(#filter3_d_4_138)">
<path d="M13.1041 4.16689V1.56272C13.1041 1.28646 12.9943 1.0215 12.799 0.826154C12.6036 0.630804 12.3387 0.521057 12.0624 0.521057H8.93742C8.66115 0.521057 8.3962 0.630804 8.20085 0.826154C8.0055 1.0215 7.89575 1.28646 7.89575 1.56272V4.16689" stroke="#DC1474" stroke-miterlimit="10" shape-rendering="crispEdges"/>
</g>
<defs>
<filter id="filter0_d_4_138" x="1.8125" y="9.91693" width="17.375" height="9" filterUnits="userSpaceOnUse" color-interpolation-filters="sRGB">
<feFlood flood-opacity="0" result="BackgroundImageFix"/>
<feColorMatrix in="SourceAlpha" type="matrix" values="0 0 0 0 0 0 0 0 0 0 0 0 0 0 0 0 0 0 127 0" result="hardAlpha"/>
<feOffset dy="4"/>
<feGaussianBlur stdDeviation="2"/>
<feComposite in2="hardAlpha" operator="out"/>
<feColorMatrix type="matrix" values="0 0 0 0 0 0 0 0 0 0 0 0 0 0 0 0 0 0 0.25 0"/>
<feBlend mode="normal" in2="BackgroundImageFix" result="effect1_dropShadow_4_138"/>
<feBlend mode="normal" in="SourceGraphic" in2="effect1_dropShadow_4_138" result="shape"/>
</filter>
<filter id="filter1_d_4_138" x="1.8125" y="17.7294" width="17.375" height="9" filterUnits="userSpaceOnUse" color-interpolation-filters="sRGB">
<feFlood flood-opacity="0" result="BackgroundImageFix"/>
<feColorMatrix in="SourceAlpha" type="matrix" values="0 0 0 0 0 0 0 0 0 0 0 0 0 0 0 0 0 0 127 0" result="hardAlpha"/>
<feOffset dy="4"/>
<feGaussianBlur stdDeviation="2"/>
<feComposite in2="hardAlpha" operator="out"/>
<feColorMatrix type="matrix" values="0 0 0 0 0 0 0 0 0 0 0 0 0 0 0 0 0 0 0.25 0"/>
<feBlend mode="normal" in2="BackgroundImageFix" result="effect1_dropShadow_4_138"/>
<feBlend mode="normal" in="SourceGraphic" in2="effect1_dropShadow_4_138" result="shape"/>
</filter>
<filter id="filter2_d_4_138" x="0.270752" y="3.66684" width="20.4584" height="29.3125" filterUnits="userSpaceOnUse" color-interpolation-filters="sRGB">
<feFlood flood-opacity="0" result="BackgroundImageFix"/>
<feColorMatrix in="SourceAlpha" type="matrix" values="0 0 0 0 0 0 0 0 0 0 0 0 0 0 0 0 0 0 127 0" result="hardAlpha"/>
<feOffset dy="4"/>
<feGaussianBlur stdDeviation="2"/>
<feComposite in2="hardAlpha" operator="out"/>
<feColorMatrix type="matrix" values="0 0 0 0 0 0 0 0 0 0 0 0 0 0 0 0 0 0 0.25 0"/>
<feBlend mode="normal" in2="BackgroundImageFix" result="effect1_dropShadow_4_138"/>
<feBlend mode="normal" in="SourceGraphic" in2="effect1_dropShadow_4_138" result="shape"/>
</filter>
<filter id="filter3_d_4_138" x="3.39575" y="0.0210571" width="14.2084" height="12.1458" filterUnits="userSpaceOnUse" color-interpolation-filters="sRGB">
<feFlood flood-opacity="0" result="BackgroundImageFix"/>
<feColorMatrix in="SourceAlpha" type="matrix" values="0 0 0 0 0 0 0 0 0 0 0 0 0 0 0 0 0 0 127 0" result="hardAlpha"/>
<feOffset dy="4"/>
<feGaussianBlur stdDeviation="2"/>
<feComposite in2="hardAlpha" operator="out"/>
<feColorMatrix type="matrix" values="0 0 0 0 0 0 0 0 0 0 0 0 0 0 0 0 0 0 0.25 0"/>
<feBlend mode="normal" in2="BackgroundImageFix" result="effect1_dropShadow_4_138"/>
<feBlend mode="normal" in="SourceGraphic" in2="effect1_dropShadow_4_138" result="shape"/>
</filter>
</defs>
</svg>
